<?xml version="1.0" encoding="UTF-8"?>
<svg id="Layer_2" data-name="Layer 2" xmlns="http://www.w3.org/2000/svg" xmlns:xlink="http://www.w3.org/1999/xlink" viewBox="0 0 256 170.82">
  <defs>
    <style>
      .cls-1 {
        mask: url(#mask);
      }

      .cls-2 {
        fill: #fff;
      }

      .cls-3 {
        filter: url(#luminosity-invert-noclip-2);
      }

      .cls-4 {
        filter: url(#luminosity-invert-noclip);
      }

      .cls-5 {
        mask: url(#mask-1);
      }
    </style>
    <filter id="luminosity-invert-noclip" x="13.85" y="-4.65" width="236.33" height="175.25" color-interpolation-filters="sRGB" filterUnits="userSpaceOnUse">
      <feColorMatrix result="cm" values="-1 0 0 0 1 0 -1 0 0 1 0 0 -1 0 1 0 0 0 1 0"/>
      <feFlood flood-color="#fff" result="bg"/>
      <feBlend in="cm" in2="bg"/>
    </filter>
    <mask id="mask" x="13.85" y="-4.65" width="236.33" height="175.25" maskUnits="userSpaceOnUse">
      <g class="cls-4">
        <g>
          <g>
            <path class="cls-2" d="m173.2,5.64l-124.57,2.86,123.37,2.79c.5-.56.79-1.41.87-1.73.17-.69.24-1.83.28-2.45.03-.56.05-.89.05-1.47Z"/>
            <polygon class="cls-2" points="159.42 17.07 62.21 20.12 162.45 22.24 159.42 17.07"/>
            <path class="cls-2" d="m140.68,39.37l-120.22,3.23,128.01,1.94-.96-.53c-2.3-1.26-4.48-2.73-6.52-4.39l-.31-.25Z"/>
            <polygon class="cls-2" points="176.99 62.73 48.08 65.26 180.62 68.84 176.99 62.73"/>
            <polygon class="cls-2" points="145.14 85.59 13.85 88.61 145.14 90.61 145.14 85.59"/>
            <polygon class="cls-2" points="182.28 122.75 47.02 124.42 182.28 127.42 182.28 122.75"/>
            <polygon class="cls-2" points="174.9 107.93 25.06 111.32 169.57 113.76 174.9 107.93"/>
            <polygon class="cls-2" points="178.64 165.05 50.51 167.82 178.64 170.6 178.64 165.05"/>
            <polygon class="cls-2" points="171.38 148.88 20.45 151.59 171.38 154.3 171.38 148.88"/>
          </g>
          <rect class="cls-2" x="98.94" y="-4.06" width="69.32" height="4.25" transform="translate(.05 2.3) rotate(-.99)"/>
          <rect class="cls-2" x="196.99" y="109.81" width="44.18" height="48.38"/>
        </g>
      </g>
    </mask>
    <filter id="luminosity-invert-noclip-2" x="13.81" y="3.99" width="168.43" height="166.62" color-interpolation-filters="sRGB" filterUnits="userSpaceOnUse">
      <feColorMatrix result="cm" values="-1 0 0 0 1 0 -1 0 0 1 0 0 -1 0 1 0 0 0 1 0"/>
      <feFlood flood-color="#fff" result="bg"/>
      <feBlend in="cm" in2="bg"/>
    </filter>
    <mask id="mask-1" x="13.81" y="3.99" width="168.43" height="166.62" maskUnits="userSpaceOnUse">
      <g class="cls-3">
        <g>
          <path class="cls-2" d="m173.15,5.65l-124.57,2.86,123.37,2.79c.5-.56.79-1.41.87-1.73.17-.69.24-1.83.28-2.45.03-.56.05-.89.05-1.47Z"/>
          <polygon class="cls-2" points="159.38 17.08 62.16 20.13 162.4 22.25 159.38 17.08"/>
          <path class="cls-2" d="m140.63,39.38l-120.22,3.23,128.01,1.94-.96-.53c-2.3-1.26-4.48-2.73-6.52-4.39l-.31-.25Z"/>
          <polygon class="cls-2" points="176.94 62.74 48.03 65.27 180.58 68.85 176.94 62.74"/>
          <polygon class="cls-2" points="145.1 85.61 13.81 88.62 145.1 90.62 145.1 85.61"/>
          <polygon class="cls-2" points="182.24 122.76 46.98 124.44 182.24 127.44 182.24 122.76"/>
          <polygon class="cls-2" points="174.86 107.94 25.01 111.33 169.53 113.77 174.86 107.94"/>
          <polygon class="cls-2" points="178.59 165.06 50.46 167.84 178.59 170.61 178.59 165.06"/>
          <polygon class="cls-2" points="171.34 148.89 20.41 151.6 171.34 154.31 171.34 148.89"/>
        </g>
      </g>
    </mask>
  </defs>
  <g id="Layer_5" data-name="Layer 5">
    <g>
      <g class="cls-1">
        <path d="m250.19,0H105.18v167.61h124.89l11.1-6.25,9.02-9.67V0Zm-14.51,73.21c1.68,3.07,3.08,10.22-3.71,15.31-9.32,6.99-26.38,7.72-37.11,6.39-1.54-.19-2.64-1.61-2.45-3.15.2-1.58,1.63-2.65,3.16-2.45.22.03,22.38,2.68,33.02-5.3,4.61-3.46,2.24-7.88,2.14-8.07-1.21-2.21.86-4.77,3.27-4.07.72.21,1.32.69,1.68,1.35Zm-4.61-15.97c.72.21,1.32.69,1.68,1.35,1.68,3.07,3.08,10.22-3.71,15.31-9.32,6.99-26.38,7.72-37.11,6.39-.75-.09-1.41-.47-1.88-1.07-1.54-1.98.09-4.86,2.58-4.54.22.03,22.39,2.67,33.02-5.3,4.61-3.46,2.24-7.88,2.14-8.07-1.21-2.21.87-4.78,3.27-4.07Zm-7.98-13.91c1.36-.74,3.07-.23,3.82,1.12,1.68,3.07,3.08,10.22-3.71,15.31-9.28,6.96-26.29,7.73-37.11,6.39-1.54-.19-2.64-1.61-2.45-3.15.19-1.56,1.6-2.65,3.16-2.45,18.61,2.18,40.53-3.32,35.14-13.39h0c-.73-1.37-.21-3.08,1.15-3.82ZM172.03,5.65h11.3c1.56,0,2.82,1.27,2.82,2.82s-1.27,2.82-2.82,2.82h-11.3c-1.56,0-2.82-1.27-2.82-2.82s1.27-2.82,2.82-2.82Zm0,7.53h11.3c1.56,0,2.82,1.27,2.82,2.82s-1.27,2.82-2.82,2.82h-11.3c-1.56,0-2.82-1.27-2.82-2.82s1.27-2.82,2.82-2.82Zm-25.19,6.94c2.23-1.55,7.36-3.43,10.38-3.43,6.77,0,12.37,5.84,20.46,5.84s13.68-5.84,20.46-5.84c3.03,0,8.15,1.88,10.38,3.43,18.42,12.85,16.91,24.44-3.64,31.3-9.73,3.25-22.09-2.81-22.61-3.07-1.39-.7-1.96-2.4-1.27-3.79.69-1.38,2.38-1.97,3.79-1.27.1.05,10.78,5.27,18.3,2.77,6.23-2.08,12.68-6.02,12.68-9.01s-3.92-7.72-10.48-12.29c-1.52-1.06-5.53-2.41-7.15-2.41-4.84,0-11.09,5.84-20.46,5.84s-15.61-5.84-20.46-5.84c-1.62,0-5.63,1.35-7.15,2.41-6.56,4.58-10.48,9.17-10.48,12.29s6.45,6.93,12.68,9.01c7.57,2.52,18.19-2.72,18.3-2.77,1.4-.69,3.1-.13,3.79,1.26.7,1.39.13,3.09-1.26,3.79-6.17,3.07-15.6,5.41-22.61,3.07-20.51-6.84-22.1-18.42-3.65-31.3Zm-18.39,24.34c.75-1.36,2.45-1.87,3.83-1.12,1.36.74,1.86,2.46,1.13,3.82-.25.47-2.34,4.73,2.13,8.09,10.58,7.93,32.8,5.33,33.02,5.3.74-.1,1.47.1,2.07.56,1.98,1.53,1.13,4.73-1.37,5.05-10.84,1.36-27.83.58-37.11-6.39-6.78-5.09-5.39-12.24-3.71-15.31Zm-5.84,14.14c.36-.66.96-1.14,1.68-1.35,2.39-.7,4.47,1.85,3.28,4.06-.41.77-2.24,4.8,2.13,8.08,10.65,7.99,32.8,5.33,33.02,5.3.75-.1,1.49.11,2.09.57,1.97,1.53,1.12,4.72-1.38,5.04-10.82,1.36-27.83.57-37.11-6.39-6.78-5.09-5.39-12.24-3.71-15.31Zm-2.92,14.61h0c.75-1.36,2.47-1.87,3.83-1.12,1.36.75,1.86,2.46,1.13,3.82-5.36,10.12,16.72,15.65,35.15,13.38.75-.1,1.48.11,2.08.57,1.99,1.53,1.12,4.73-1.38,5.04-10.82,1.36-27.83.57-37.11-6.39-6.78-5.08-5.39-12.24-3.71-15.31Zm63.65,88.75h-11.3c-1.56,0-2.82-1.27-2.82-2.82s1.27-2.82,2.82-2.82h11.3c1.56,0,2.82,1.27,2.82,2.82s-1.27,2.82-2.82,2.82Zm0-7.53h-11.3c-1.56,0-2.82-1.27-2.82-2.82s1.27-2.82,2.82-2.82h11.3c1.56,0,2.82,1.27,2.82,2.82s-1.27,2.82-2.82,2.82Zm0-9.42h-11.3c-1.56,0-2.82-1.27-2.82-2.82s1.27-2.82,2.82-2.82h11.3c1.56,0,2.82,1.27,2.82,2.82s-1.27,2.82-2.82,2.82Zm55.32-19.03c-4.15,8.3-11.65,13.25-20.06,13.25-19.85,0-15.31-11.33-32.44-11.73v8.1h-16.95v-8.09c-16.92.4-12.82,11.73-32.44,11.73-8.41,0-15.91-4.95-20.06-13.25-3.09-6.18-.89-21.25-.3-24.85-4.29-4.87-3.02-10.62-1.54-13.3.36-.66.96-1.14,1.69-1.35,2.39-.7,4.47,1.86,3.27,4.06-5.36,10.11,16.47,15.52,35.15,13.38.74-.09,1.48.1,2.08.56,2,1.55,1.1,4.74-1.38,5.04-.98.12-21.11,2.59-34.12-4.54-.89,6.92-1.32,15.43.2,18.48,1.52,3.05,6.03,10.13,15.01,10.13,7.87,0,9.42-1.2,13.57-4.42,5.48-4.24,9.01-7.14,18.86-7.32v-30.5c0-1.56,1.27-2.82,2.82-2.82s2.82,1.27,2.82,2.82v38.61h5.65v-38.61c0-1.56,1.27-2.82,2.82-2.82s2.82,1.27,2.82,2.82v30.5c3.6.07,9.37.66,13.55,3.45,9.06,6.04,8.27,8.29,18.89,8.29,8.97,0,13.48-7.08,15.01-10.13,1.53-3.06,1.09-11.56.2-18.48-13,7.13-33.13,4.67-34.12,4.54-.75-.09-1.41-.47-1.88-1.07-1.54-1.98.1-4.88,2.58-4.54.22.03,22.51,2.58,33.02-5.3,4.61-3.46,2.24-7.88,2.14-8.07-.75-1.37-.25-3.09,1.12-3.84,1.36-.75,3.08-.25,3.83,1.12,1.47,2.69,2.75,8.44-1.54,13.31.59,3.6,2.79,18.67-.3,24.85Z"/>
      </g>
      <g class="cls-5">
        <g>
          <polygon points="171.92 3.99 43.32 6.36 171.92 8.72 171.92 3.99"/>
          <polygon points="152.04 15.69 49.56 17.97 149.42 20.18 152.04 15.69"/>
          <polygon points="145.1 37.26 20.74 40.08 145.1 42.9 145.1 37.26"/>
          <polygon points="172.04 60.18 48.3 62.74 172.04 65.31 172.04 60.18"/>
          <polygon points="154.84 82.86 14.15 86.09 154.84 89.33 154.84 82.86"/>
          <polygon points="179.7 120.79 47.25 123.79 179.7 126.79 179.7 120.79"/>
          <polygon points="160.31 105.94 25.33 108.8 156.2 110.66 160.31 105.94"/>
          <polygon points="168.45 162.27 50.73 165.28 168.45 168.29 168.45 162.27"/>
          <polygon points="156.93 147.06 23.58 150.11 156.93 153.16 156.93 147.06"/>
        </g>
      </g>
      <polygon points="101.24 135.85 10.2 137.25 101.24 138.65 101.24 135.85"/>
      <polygon points="86.64 96.96 0 98.28 86.64 99.61 86.64 96.96"/>
      <polygon points="72.95 158.17 7.83 159.13 72.95 160.1 72.95 158.17"/>
      <polygon points="83.1 28.55 3.54 29.76 83.1 30.96 83.1 28.55"/>
      <polygon points="94.87 70.69 24.12 71.75 94.87 72.8 94.87 70.69"/>
      <polygon points="101.7 51.07 17.29 52.36 101.7 53.65 101.7 51.07"/>
      <path d="m219.67,98.15c-20.07,0-36.34,16.27-36.34,36.34s16.27,36.34,36.34,36.34,36.34-16.27,36.34-36.34-16.27-36.34-36.34-36.34Zm19.53,16.99c0,.46-.17.9-.48,1.24-2.63,2.89-15.45,17.56-23.44,37.42-.96,2.39-4.27,2.55-5.46.26-2.28-4.41-5.78-10.4-10.28-15.73-1.27-1.51-1.36-3.69-.21-5.29h0c1.58-2.21,4.79-2.41,6.65-.43,3.77,4.03,6.44,7.82,6.82,8.36.02.03.07.03.09,0,.6-1.08,8.1-14.14,23.26-27.23,1.19-1.03,3.05-.18,3.05,1.4h0Z"/>
    </g>
  </g>
</svg>