<?xml version="1.0" encoding="UTF-8"?>
<svg id="Layer_2" data-name="Layer 2" xmlns="http://www.w3.org/2000/svg" xmlns:xlink="http://www.w3.org/1999/xlink" viewBox="0 0 256.87 256">
  <defs>
    <style>
      .cls-1 {
        mask: url(#mask);
      }

      .cls-2 {
        fill: #fff;
      }

      .cls-3 {
        fill: #53aa32;
      }

      .cls-4 {
        filter: url(#luminosity-invert-noclip-2);
      }

      .cls-5 {
        filter: url(#luminosity-invert-noclip);
      }

      .cls-6 {
        mask: url(#mask-1);
      }

      .cls-7 {
        fill: url(#Gradient_Swatch_10);
      }
    </style>
    <linearGradient id="Gradient_Swatch_10" data-name="Gradient Swatch 10" x1="128.87" y1="258.84" x2="128.87" y2="-8.67" gradientUnits="userSpaceOnUse">
      <stop offset="0" stop-color="#34bcdb"/>
      <stop offset=".16" stop-color="#32aed3"/>
      <stop offset=".47" stop-color="#2d8abe"/>
      <stop offset=".88" stop-color="#26519c"/>
      <stop offset="1" stop-color="#243f92"/>
    </linearGradient>
    <filter id="luminosity-invert-noclip" x="13.54" y="45.36" width="231.02" height="171.31" color-interpolation-filters="sRGB" filterUnits="userSpaceOnUse">
      <feColorMatrix result="cm" values="-1 0 0 0 1 0 -1 0 0 1 0 0 -1 0 1 0 0 0 1 0"/>
      <feFlood flood-color="#fff" result="bg"/>
      <feBlend in="cm" in2="bg"/>
    </filter>
    <mask id="mask" x="13.54" y="45.36" width="231.02" height="171.31" maskUnits="userSpaceOnUse">
      <g class="cls-5">
        <g>
          <g>
            <path class="cls-2" d="m169.31,55.41l-121.77,2.8,120.6,2.73c.48-.55.78-1.37.85-1.69.16-.67.24-1.79.27-2.39.03-.55.05-.87.05-1.44Z"/>
            <polygon class="cls-2" points="155.84 66.59 60.81 69.57 158.8 71.64 155.84 66.59"/>
            <path class="cls-2" d="m137.52,88.39l-117.52,3.15,125.13,1.89-.94-.51c-2.25-1.23-4.38-2.67-6.37-4.29l-.3-.24Z"/>
            <polygon class="cls-2" points="173.01 111.22 47 113.7 176.57 117.2 173.01 111.22"/>
            <polygon class="cls-2" points="141.88 133.58 13.54 136.52 141.88 138.48 141.88 133.58"/>
            <polygon class="cls-2" points="178.19 169.89 45.97 171.53 178.19 174.47 178.19 169.89"/>
            <polygon class="cls-2" points="170.97 155.41 24.49 158.72 165.76 161.11 170.97 155.41"/>
            <polygon class="cls-2" points="174.63 211.25 49.37 213.96 174.63 216.67 174.63 211.25"/>
            <polygon class="cls-2" points="167.53 195.44 19.99 198.09 167.53 200.74 167.53 195.44"/>
          </g>
          <rect class="cls-2" x="96.72" y="45.94" width="67.76" height="4.16" transform="translate(-.81 2.25) rotate(-.99)"/>
          <rect class="cls-2" x="192.56" y="157.25" width="43.19" height="47.29"/>
        </g>
      </g>
    </mask>
    <filter id="luminosity-invert-noclip-2" x="13.5" y="53.81" width="164.65" height="162.87" color-interpolation-filters="sRGB" filterUnits="userSpaceOnUse">
      <feColorMatrix result="cm" values="-1 0 0 0 1 0 -1 0 0 1 0 0 -1 0 1 0 0 0 1 0"/>
      <feFlood flood-color="#fff" result="bg"/>
      <feBlend in="cm" in2="bg"/>
    </filter>
    <mask id="mask-1" x="13.5" y="53.81" width="164.65" height="162.87" maskUnits="userSpaceOnUse">
      <g class="cls-4">
        <g>
          <path class="cls-2" d="m169.27,55.43l-121.77,2.8,120.6,2.73c.48-.55.78-1.37.85-1.69.16-.67.24-1.79.27-2.39.03-.55.05-.87.05-1.44Z"/>
          <polygon class="cls-2" points="155.8 66.6 60.77 69.59 158.75 71.66 155.8 66.6"/>
          <path class="cls-2" d="m137.47,88.4l-117.52,3.15,125.13,1.89-.94-.51c-2.25-1.23-4.38-2.67-6.37-4.29l-.3-.24Z"/>
          <polygon class="cls-2" points="172.97 111.24 46.95 113.71 176.52 117.21 172.97 111.24"/>
          <polygon class="cls-2" points="141.84 133.59 13.5 136.53 141.84 138.49 141.84 133.59"/>
          <polygon class="cls-2" points="178.15 169.91 45.92 171.55 178.15 174.48 178.15 169.91"/>
          <polygon class="cls-2" points="170.93 155.42 24.45 158.74 165.72 161.12 170.93 155.42"/>
          <polygon class="cls-2" points="174.58 211.26 49.33 213.97 174.58 216.68 174.58 211.26"/>
          <polygon class="cls-2" points="167.49 195.45 19.95 198.1 167.49 200.75 167.49 195.45"/>
        </g>
      </g>
    </mask>
  </defs>
  <g id="Layer_3" data-name="Layer 3">
    <g>
      <rect class="cls-7" x=".87" width="256" height="256" rx="40" ry="40"/>
      <g class="cls-1">
        <path class="cls-2" d="m244.57,49.9H102.81v163.85h122.09l10.85-6.11,8.82-9.46V49.9Zm-14.18,71.57c1.65,3,3.01,9.99-3.62,14.96-9.11,6.83-25.79,7.55-36.28,6.24-1.51-.19-2.59-1.57-2.4-3.08.19-1.54,1.59-2.59,3.09-2.4.21.03,21.87,2.62,32.28-5.18,4.51-3.38,2.19-7.7,2.09-7.89-1.18-2.16.84-4.67,3.19-3.98.71.21,1.29.68,1.65,1.32Zm-4.5-15.61c.71.21,1.29.68,1.65,1.32,1.65,3,3.01,9.99-3.62,14.96-9.11,6.83-25.79,7.55-36.28,6.24-.73-.09-1.38-.46-1.84-1.04-1.5-1.93.09-4.75,2.52-4.44.22.03,21.88,2.61,32.28-5.18,4.51-3.38,2.19-7.71,2.09-7.89-1.18-2.16.85-4.67,3.19-3.98Zm-7.8-13.6c1.33-.72,3-.23,3.73,1.1,1.65,3,3.01,9.99-3.62,14.96-9.07,6.8-25.7,7.56-36.28,6.24-1.51-.19-2.59-1.57-2.4-3.08.19-1.52,1.56-2.59,3.09-2.4,18.19,2.14,39.62-3.25,34.35-13.09h0c-.71-1.34-.21-3.01,1.12-3.73Zm-49.92-36.84h11.05c1.52,0,2.76,1.24,2.76,2.76s-1.24,2.76-2.76,2.76h-11.05c-1.52,0-2.76-1.24-2.76-2.76s1.24-2.76,2.76-2.76Zm0,7.36h11.05c1.52,0,2.76,1.24,2.76,2.76s-1.24,2.76-2.76,2.76h-11.05c-1.52,0-2.76-1.24-2.76-2.76s1.24-2.76,2.76-2.76Zm-24.62,6.78c2.18-1.52,7.19-3.35,10.15-3.35,6.62,0,12.09,5.71,20,5.71s13.38-5.71,20-5.71c2.96,0,7.97,1.83,10.15,3.35,18.01,12.56,16.53,23.9-3.56,30.6-9.52,3.18-21.6-2.75-22.1-3-1.36-.68-1.92-2.34-1.24-3.7.67-1.35,2.33-1.93,3.71-1.24.1.05,10.54,5.16,17.89,2.71,6.09-2.03,12.4-5.88,12.4-8.81s-3.83-7.54-10.25-12.02c-1.49-1.04-5.41-2.36-6.99-2.36-4.73,0-10.84,5.71-20,5.71s-15.26-5.71-20-5.71c-1.58,0-5.5,1.32-6.99,2.36-6.41,4.47-10.24,8.97-10.24,12.02s6.3,6.77,12.4,8.81c7.4,2.47,17.78-2.65,17.89-2.71,1.37-.68,3.03-.12,3.71,1.23.68,1.36.13,3.02-1.24,3.71-6.03,3-15.25,5.29-22.11,3.01-20.05-6.68-21.61-18.01-3.56-30.6Zm-17.98,23.79c.73-1.33,2.4-1.83,3.75-1.09,1.33.73,1.82,2.4,1.1,3.73-.25.46-2.29,4.62,2.08,7.91,10.34,7.75,32.07,5.21,32.28,5.18.72-.1,1.44.1,2.02.55,1.94,1.5,1.11,4.63-1.34,4.93-10.6,1.32-27.2.56-36.28-6.24-6.63-4.97-5.27-11.96-3.62-14.96Zm-5.71,13.83c.35-.65.94-1.12,1.65-1.32,2.34-.69,4.37,1.81,3.2,3.97-.4.75-2.19,4.69,2.09,7.9,10.41,7.81,32.07,5.21,32.28,5.18.73-.09,1.46.1,2.04.56,1.93,1.49,1.09,4.62-1.35,4.92-10.58,1.33-27.2.56-36.28-6.24-6.63-4.97-5.27-11.96-3.62-14.96Zm-2.86,14.28h0c.73-1.33,2.41-1.83,3.75-1.09,1.33.73,1.82,2.41,1.1,3.74-5.24,9.89,16.35,15.3,34.36,13.08.73-.1,1.45.1,2.03.55,1.94,1.5,1.1,4.62-1.34,4.93-10.58,1.33-27.2.56-36.28-6.24-6.63-4.97-5.27-11.96-3.62-14.96Zm62.22,86.75h-11.05c-1.52,0-2.76-1.24-2.76-2.76s1.24-2.76,2.76-2.76h11.05c1.52,0,2.76,1.24,2.76,2.76s-1.24,2.76-2.76,2.76Zm0-7.36h-11.05c-1.52,0-2.76-1.24-2.76-2.76s1.24-2.76,2.76-2.76h11.05c1.52,0,2.76,1.24,2.76,2.76s-1.24,2.76-2.76,2.76Zm0-9.2h-11.05c-1.52,0-2.76-1.24-2.76-2.76s1.24-2.76,2.76-2.76h11.05c1.52,0,2.76,1.24,2.76,2.76s-1.24,2.76-2.76,2.76Zm54.08-18.6c-4.06,8.11-11.39,12.95-19.61,12.95-19.4,0-14.97-11.08-31.71-11.47v7.92h-16.57v-7.91c-16.54.39-12.54,11.47-31.71,11.47-8.22,0-15.55-4.84-19.61-12.95-3.02-6.04-.87-20.77-.29-24.29-4.19-4.76-2.95-10.38-1.51-13.01.35-.65.94-1.12,1.65-1.32,2.34-.69,4.37,1.82,3.2,3.97-5.24,9.88,16.1,15.17,34.36,13.08.72-.09,1.45.1,2.03.55,1.96,1.52,1.08,4.63-1.35,4.93-.96.12-20.64,2.54-33.35-4.44-.87,6.77-1.29,15.08.2,18.06,1.49,2.98,5.89,9.9,14.67,9.9,7.69,0,9.21-1.18,13.27-4.32,5.35-4.15,8.81-6.98,18.44-7.16v-29.82c0-1.52,1.24-2.76,2.76-2.76s2.76,1.24,2.76,2.76v37.74h5.52v-37.74c0-1.52,1.24-2.76,2.76-2.76s2.76,1.24,2.76,2.76v29.82c3.52.07,9.16.65,13.24,3.37,8.86,5.91,8.08,8.11,18.47,8.11,8.77,0,13.18-6.92,14.67-9.9,1.49-2.99,1.07-11.3.2-18.06-12.7,6.97-32.39,4.56-33.35,4.44-.73-.09-1.38-.46-1.84-1.04-1.51-1.94.1-4.77,2.53-4.44.21.03,22,2.52,32.28-5.18,4.51-3.38,2.19-7.71,2.09-7.89-.73-1.34-.24-3.02,1.09-3.75,1.33-.73,3.01-.24,3.75,1.09,1.44,2.63,2.68,8.25-1.51,13.01.57,3.52,2.73,18.25-.29,24.29Z"/>
      </g>
      <g class="cls-6">
        <g>
          <polygon class="cls-2" points="168.06 53.81 42.35 56.12 168.06 58.43 168.06 53.81"/>
          <polygon class="cls-2" points="148.63 65.24 48.45 67.47 146.06 69.64 148.63 65.24"/>
          <polygon class="cls-2" points="141.84 86.33 20.27 89.08 141.84 91.84 141.84 86.33"/>
          <polygon class="cls-2" points="168.18 108.73 47.22 111.24 168.18 113.75 168.18 108.73"/>
          <polygon class="cls-2" points="151.37 130.9 13.83 134.06 151.37 137.22 151.37 130.9"/>
          <polygon class="cls-2" points="175.67 167.98 46.19 170.92 175.67 173.85 175.67 167.98"/>
          <polygon class="cls-2" points="156.71 153.47 24.76 156.27 152.69 158.08 156.71 153.47"/>
          <polygon class="cls-2" points="164.66 208.53 49.59 211.47 164.66 214.41 164.66 208.53"/>
          <polygon class="cls-2" points="153.4 193.67 23.05 196.65 153.4 199.63 153.4 193.67"/>
        </g>
      </g>
      <polygon class="cls-2" points="98.96 182.71 9.97 184.07 98.96 185.44 98.96 182.71"/>
      <polygon class="cls-2" points="84.69 144.69 0 145.98 84.69 147.28 84.69 144.69"/>
      <polygon class="cls-2" points="71.31 204.53 7.65 205.47 71.31 206.41 71.31 204.53"/>
      <polygon class="cls-2" points="81.23 77.81 3.46 78.99 81.23 80.17 81.23 77.81"/>
      <polygon class="cls-2" points="92.74 119.01 23.58 120.04 92.74 121.07 92.74 119.01"/>
      <polygon class="cls-2" points="99.42 99.83 16.9 101.09 99.42 102.35 99.42 99.83"/>
      <g>
        <rect class="cls-2" x="190.7" y="158.08" width="48.72" height="47.38"/>
        <path class="cls-3" d="m214.73,145.85c-19.62,0-35.52,15.9-35.52,35.52s15.9,35.52,35.52,35.52,35.52-15.9,35.52-35.52-15.9-35.52-35.52-35.52Zm19.09,16.61c0,.45-.17.88-.47,1.21-2.57,2.82-15.1,17.16-22.91,36.58-.94,2.33-4.18,2.49-5.33.26-2.23-4.31-5.65-10.17-10.05-15.37-1.25-1.47-1.33-3.6-.21-5.17h0c1.55-2.16,4.68-2.36,6.5-.42,3.69,3.94,6.3,7.64,6.67,8.17.02.03.07.03.08,0,.59-1.05,7.92-13.82,22.74-26.61,1.17-1.01,2.98-.18,2.98,1.36h0Z"/>
      </g>
    </g>
  </g>
</svg>