<?xml version="1.0" encoding="UTF-8"?>
<svg id="Layer_2" data-name="Layer 2" xmlns="http://www.w3.org/2000/svg" xmlns:xlink="http://www.w3.org/1999/xlink" viewBox="0 0 256.08 256.08">
  <defs>
    <style>
      .cls-1 {
        mask: url(#mask);
      }

      .cls-2 {
        fill: #fff;
      }

      .cls-3 {
        fill: #404040;
      }

      .cls-4 {
        fill: #53aa32;
      }

      .cls-5 {
        fill: url(#Gradient_Swatch_2);
      }

      .cls-6 {
        filter: url(#luminosity-invert-noclip-2);
      }

      .cls-7 {
        filter: url(#luminosity-invert-noclip);
      }

      .cls-8 {
        mask: url(#mask-1);
      }
    </style>
    <linearGradient id="Gradient_Swatch_2" data-name="Gradient Swatch 2" x1="128.04" y1="258.93" x2="128.04" y2="-8.67" gradientUnits="userSpaceOnUse">
      <stop offset="0" stop-color="#e7e6e6"/>
      <stop offset=".69" stop-color="#f6f6f6"/>
      <stop offset="1" stop-color="#fff"/>
    </linearGradient>
    <filter id="luminosity-invert-noclip" x="13.55" y="43.54" width="231.1" height="171.37" color-interpolation-filters="sRGB" filterUnits="userSpaceOnUse">
      <feColorMatrix result="cm" values="-1 0 0 0 1 0 -1 0 0 1 0 0 -1 0 1 0 0 0 1 0"/>
      <feFlood flood-color="#fff" result="bg"/>
      <feBlend in="cm" in2="bg"/>
    </filter>
    <mask id="mask" x="13.55" y="43.54" width="231.1" height="171.37" maskUnits="userSpaceOnUse">
      <g class="cls-7">
        <g>
          <g>
            <path class="cls-2" d="m169.36,53.6l-121.81,2.8,120.64,2.73c.48-.55.78-1.38.85-1.69.16-.67.24-1.79.27-2.4.03-.55.05-.87.05-1.44Z"/>
            <polygon class="cls-2" points="155.89 64.78 60.83 67.76 158.85 69.83 155.89 64.78"/>
            <path class="cls-2" d="m137.56,86.58l-117.56,3.15,125.17,1.89-.94-.52c-2.25-1.23-4.38-2.67-6.37-4.29l-.3-.24Z"/>
            <polygon class="cls-2" points="173.07 109.43 47.01 111.9 176.62 115.4 173.07 109.43"/>
            <polygon class="cls-2" points="141.93 131.79 13.55 134.73 141.93 136.69 141.93 131.79"/>
            <polygon class="cls-2" points="178.25 168.12 45.98 169.75 178.25 172.69 178.25 168.12"/>
            <polygon class="cls-2" points="171.03 153.63 24.5 156.94 165.82 159.33 171.03 153.63"/>
            <polygon class="cls-2" points="174.68 209.48 49.39 212.19 174.68 214.91 174.68 209.48"/>
            <polygon class="cls-2" points="167.58 193.67 20 196.32 167.58 198.97 167.58 193.67"/>
          </g>
          <rect class="cls-2" x="96.75" y="44.12" width="67.79" height="4.16" transform="translate(-.78 2.25) rotate(-.99)"/>
          <rect class="cls-2" x="192.63" y="155.47" width="43.2" height="47.31"/>
        </g>
      </g>
    </mask>
    <filter id="luminosity-invert-noclip-2" x="13.51" y="51.99" width="164.7" height="162.93" color-interpolation-filters="sRGB" filterUnits="userSpaceOnUse">
      <feColorMatrix result="cm" values="-1 0 0 0 1 0 -1 0 0 1 0 0 -1 0 1 0 0 0 1 0"/>
      <feFlood flood-color="#fff" result="bg"/>
      <feBlend in="cm" in2="bg"/>
    </filter>
    <mask id="mask-1" x="13.51" y="51.99" width="164.7" height="162.93" maskUnits="userSpaceOnUse">
      <g class="cls-6">
        <g>
          <path class="cls-2" d="m169.32,53.61l-121.81,2.8,120.64,2.73c.48-.55.78-1.38.85-1.69.16-.67.24-1.79.27-2.4.03-.55.05-.87.05-1.44Z"/>
          <polygon class="cls-2" points="155.85 64.79 60.79 67.77 158.81 69.85 155.85 64.79"/>
          <path class="cls-2" d="m137.52,86.6l-117.56,3.15,125.17,1.89-.94-.52c-2.25-1.23-4.38-2.67-6.37-4.29l-.3-.24Z"/>
          <polygon class="cls-2" points="173.03 109.44 46.97 111.91 176.58 115.41 173.03 109.44"/>
          <polygon class="cls-2" points="141.89 131.8 13.51 134.75 141.89 136.7 141.89 131.8"/>
          <polygon class="cls-2" points="178.2 168.13 45.94 169.77 178.2 172.7 178.2 168.13"/>
          <polygon class="cls-2" points="170.98 153.64 24.46 156.95 165.78 159.34 170.98 153.64"/>
          <polygon class="cls-2" points="174.64 209.49 49.35 212.21 174.64 214.92 174.64 209.49"/>
          <polygon class="cls-2" points="167.54 193.68 19.96 196.33 167.54 198.98 167.54 193.68"/>
        </g>
      </g>
    </mask>
  </defs>
  <g id="Layer_6" data-name="Layer 6">
    <g>
      <rect class="cls-5" width="256.08" height="256.08" rx="40" ry="40"/>
      <g>
        <g class="cls-1">
          <path class="cls-3" d="m244.64,48.09H102.85v163.9h122.12l10.85-6.11,8.82-9.46V48.09Zm-14.18,71.59c1.65,3,3.01,10-3.62,14.97-9.11,6.84-25.8,7.55-36.29,6.25-1.51-.19-2.59-1.57-2.4-3.08.19-1.54,1.59-2.59,3.09-2.4.21.03,21.88,2.62,32.29-5.18,4.51-3.38,2.19-7.71,2.09-7.89-1.18-2.16.84-4.67,3.2-3.98.71.21,1.29.68,1.65,1.32Zm-4.5-15.61c.71.21,1.29.68,1.65,1.32,1.65,3,3.01,10-3.62,14.97-9.11,6.84-25.8,7.55-36.29,6.25-.73-.09-1.38-.46-1.84-1.04-1.5-1.93.09-4.75,2.52-4.44.22.03,21.89,2.61,32.29-5.18,4.51-3.39,2.19-7.71,2.09-7.89-1.19-2.16.85-4.67,3.2-3.98Zm-7.8-13.6c1.33-.72,3-.23,3.73,1.1,1.65,3,3.01,10-3.62,14.97-9.07,6.81-25.71,7.56-36.29,6.25-1.51-.19-2.59-1.57-2.4-3.08.19-1.52,1.56-2.59,3.09-2.4,18.19,2.14,39.63-3.25,34.37-13.1h0c-.71-1.34-.21-3.02,1.12-3.73Zm-49.94-36.85h11.05c1.52,0,2.76,1.24,2.76,2.76s-1.24,2.76-2.76,2.76h-11.05c-1.52,0-2.76-1.24-2.76-2.76s1.24-2.76,2.76-2.76Zm0,7.37h11.05c1.52,0,2.76,1.24,2.76,2.76s-1.24,2.76-2.76,2.76h-11.05c-1.52,0-2.76-1.24-2.76-2.76s1.24-2.76,2.76-2.76Zm-24.63,6.78c2.18-1.52,7.2-3.35,10.15-3.35,6.62,0,12.09,5.71,20,5.71s13.38-5.71,20-5.71c2.96,0,7.97,1.83,10.15,3.35,18.01,12.56,16.54,23.9-3.56,30.6-9.52,3.18-21.6-2.75-22.11-3.01-1.36-.68-1.92-2.34-1.24-3.7.68-1.35,2.33-1.93,3.71-1.24.1.05,10.54,5.16,17.89,2.71,6.09-2.03,12.4-5.88,12.4-8.81s-3.83-7.55-10.25-12.02c-1.49-1.04-5.41-2.36-6.99-2.36-4.73,0-10.84,5.71-20,5.71s-15.26-5.71-20-5.71c-1.58,0-5.51,1.32-6.99,2.36-6.42,4.48-10.25,8.97-10.25,12.02s6.31,6.78,12.4,8.81c7.4,2.47,17.79-2.66,17.89-2.71,1.37-.68,3.03-.12,3.71,1.23.68,1.36.13,3.03-1.24,3.71-6.03,3-15.26,5.29-22.11,3.01-20.06-6.69-21.61-18.01-3.56-30.6Zm-17.99,23.8c.73-1.33,2.4-1.83,3.75-1.09,1.33.73,1.82,2.4,1.1,3.74-.25.46-2.29,4.63,2.08,7.91,10.35,7.76,32.08,5.21,32.29,5.18.72-.1,1.44.1,2.02.55,1.94,1.5,1.11,4.63-1.34,4.93-10.6,1.33-27.21.56-36.29-6.25-6.63-4.97-5.27-11.97-3.62-14.97Zm-5.72,13.83c.35-.65.94-1.12,1.65-1.32,2.34-.69,4.37,1.81,3.2,3.97-.4.75-2.19,4.7,2.09,7.9,10.42,7.81,32.08,5.21,32.29,5.18.73-.09,1.46.1,2.04.56,1.93,1.49,1.09,4.62-1.35,4.92-10.58,1.33-27.21.56-36.29-6.25-6.63-4.97-5.27-11.97-3.62-14.97Zm-2.86,14.29h0c.73-1.33,2.41-1.83,3.75-1.09,1.33.73,1.82,2.41,1.1,3.74-5.24,9.89,16.35,15.3,34.38,13.09.73-.1,1.45.1,2.03.55,1.94,1.5,1.1,4.62-1.35,4.93-10.58,1.33-27.21.56-36.29-6.25-6.63-4.97-5.27-11.96-3.62-14.97Zm62.24,86.78h-11.05c-1.52,0-2.76-1.24-2.76-2.76s1.24-2.76,2.76-2.76h11.05c1.52,0,2.76,1.24,2.76,2.76s-1.24,2.76-2.76,2.76Zm0-7.37h-11.05c-1.52,0-2.76-1.24-2.76-2.76s1.24-2.76,2.76-2.76h11.05c1.52,0,2.76,1.24,2.76,2.76s-1.24,2.76-2.76,2.76Zm0-9.21h-11.05c-1.52,0-2.76-1.24-2.76-2.76s1.24-2.76,2.76-2.76h11.05c1.52,0,2.76,1.24,2.76,2.76s-1.24,2.76-2.76,2.76Zm54.1-18.61c-4.06,8.11-11.39,12.96-19.61,12.96-19.41,0-14.97-11.08-31.72-11.47v7.92h-16.57v-7.92c-16.55.39-12.54,11.47-31.72,11.47-8.23,0-15.56-4.84-19.61-12.96-3.02-6.04-.87-20.78-.3-24.3-4.2-4.76-2.95-10.38-1.51-13.01.35-.65.94-1.12,1.65-1.32,2.34-.69,4.37,1.82,3.2,3.97-5.24,9.88,16.11,15.17,34.37,13.09.72-.09,1.45.1,2.03.55,1.96,1.52,1.08,4.63-1.35,4.93-.96.12-20.64,2.54-33.36-4.44-.87,6.77-1.29,15.09.2,18.07,1.49,2.98,5.9,9.9,14.67,9.9,7.7,0,9.21-1.18,13.27-4.32,5.36-4.15,8.81-6.98,18.45-7.16v-29.83c0-1.52,1.24-2.76,2.76-2.76s2.76,1.24,2.76,2.76v37.75h5.52v-37.75c0-1.52,1.24-2.76,2.76-2.76s2.76,1.24,2.76,2.76v29.83c3.52.07,9.16.65,13.25,3.37,8.86,5.91,8.09,8.11,18.47,8.11,8.78,0,13.19-6.93,14.67-9.9,1.49-2.99,1.07-11.3.2-18.07-12.71,6.97-32.4,4.56-33.36,4.44-.73-.09-1.38-.46-1.84-1.04-1.51-1.94.1-4.77,2.53-4.44.21.03,22.01,2.52,32.29-5.18,4.51-3.39,2.19-7.71,2.09-7.89-.73-1.34-.24-3.02,1.09-3.75,1.33-.73,3.01-.24,3.75,1.09,1.44,2.63,2.68,8.25-1.51,13.01.57,3.52,2.73,18.26-.3,24.3Z"/>
        </g>
        <g class="cls-8">
          <g>
            <polygon class="cls-3" points="168.11 51.99 42.36 54.31 168.11 56.62 168.11 51.99"/>
            <polygon class="cls-3" points="148.67 63.43 48.46 65.66 146.11 67.83 148.67 63.43"/>
            <polygon class="cls-3" points="141.89 84.52 20.28 87.28 141.89 90.04 141.89 84.52"/>
            <polygon class="cls-3" points="168.23 106.93 47.23 109.44 168.23 111.95 168.23 106.93"/>
            <polygon class="cls-3" points="151.42 129.11 13.84 132.27 151.42 135.44 151.42 129.11"/>
            <polygon class="cls-3" points="175.72 166.2 46.21 169.14 175.72 172.07 175.72 166.2"/>
            <polygon class="cls-3" points="156.76 151.69 24.77 154.48 152.74 156.3 156.76 151.69"/>
            <polygon class="cls-3" points="164.72 206.77 49.61 209.71 164.72 212.65 164.72 206.77"/>
            <polygon class="cls-3" points="153.45 191.9 23.06 194.88 153.45 197.86 153.45 191.9"/>
          </g>
        </g>
        <polygon class="cls-3" points="98.99 180.93 9.98 182.3 98.99 183.67 98.99 180.93"/>
        <polygon class="cls-3" points="84.72 142.9 0 144.19 84.72 145.49 84.72 142.9"/>
        <polygon class="cls-3" points="71.33 202.76 7.65 203.7 71.33 204.64 71.33 202.76"/>
        <polygon class="cls-3" points="81.26 76.01 3.46 77.18 81.26 78.36 81.26 76.01"/>
        <polygon class="cls-3" points="92.77 117.21 23.59 118.25 92.77 119.28 92.77 117.21"/>
        <polygon class="cls-3" points="99.45 98.03 16.9 99.29 99.45 100.55 99.45 98.03"/>
        <path class="cls-4" d="m214.8,144.06c-19.62,0-35.53,15.91-35.53,35.53s15.91,35.53,35.53,35.53,35.53-15.91,35.53-35.53-15.91-35.53-35.53-35.53Zm19.1,16.61c0,.45-.17.88-.47,1.21-2.57,2.82-15.11,17.17-22.92,36.59-.94,2.33-4.18,2.49-5.34.26-2.23-4.31-5.65-10.17-10.05-15.38-1.25-1.47-1.33-3.6-.21-5.17h0c1.55-2.16,4.68-2.36,6.5-.42,3.69,3.94,6.3,7.64,6.67,8.18.02.03.07.03.08,0,.59-1.05,7.92-13.83,22.74-26.62,1.17-1.01,2.98-.18,2.98,1.37h0Z"/>
      </g>
    </g>
  </g>
</svg>